# xmcd
#
# Track frame offsets: 
#        150
#        14705
#        28990
#        44909
#        63087
#        82525
#        102947
#        118305
#        135866
#        154172
#
# Disc length: 2257 seconds
#
# Revision: 1
# Processed by: cddbd v1.5.2PL0 Copyright (c) Steve Scherf et al.
# Submitted via: ExactAudioCopy v0.99pb4
#
DISCID=8008cf0a
DTITLE=Suzanne Gorman - Open Book
DYEAR=2006
DGENRE=Country
TTITLE0=You Make Me Beautiful
TTITLE1=Sanctuary
TTITLE2=Heartbreaker
TTITLE3=You Gotta Believe
TTITLE4=Stranger and Me
TTITLE5=In Africa
TTITLE6=This Side of the Riviera
TTITLE7=That`s What Life`s About
TTITLE8=After I Say I Love You
TTITLE9=Sleeping Beauty
EXTD=
EXTT0=
EXTT1=
EXTT2=
EXTT3=
EXTT4=
EXTT5=
EXTT6=
EXTT7=
EXTT8=
EXTT9=
PLAYORDER=
